<svg id="visual" viewBox="0 0 1000 900" width="1000" height="900" xmlns="http://www.w3.org/2000/svg" xmlns:xlink="http://www.w3.org/1999/xlink" version="1.1"><path d="M210 0L197.2 25C184.3 50 158.7 100 157.5 150C156.3 200 179.7 250 193.5 300C207.3 350 211.7 400 200.8 450C190 500 164 550 145.7 600C127.3 650 116.7 700 131.2 750C145.7 800 185.3 850 205.2 875L225 900L0 900L0 875C0 850 0 800 0 750C0 700 0 650 0 600C0 550 0 500 0 450C0 400 0 350 0 300C0 250 0 200 0 150C0 100 0 50 0 25L0 0Z" fill="#282a37" stroke-linecap="round" stroke-linejoin="miter"></path></svg>